PathFileType	4	(X/Y/Z)	path1_05_0-945.trc
DataRate	CameraRate	NumFrames	NumMarkers	Units	OrigDataRate	OrigDataStartFrame	OrigNumFrames
30	30	9	22	m	30	354	945
Frame#	Time	Hip			RHip			RKnee			RAnkle			RBigToe			RSmallToe			RHeel			LHip			LKnee			LAnkle			LBigToe			LSmallToe			LHeel			Neck			Head			Nose			RShoulder			RElbow			RWrist			LShoulder			LElbow			LWrist		
		X1	Y1	Z1	X2	Y2	Z2	X3	Y3	Z3	X4	Y4	Z4	X5	Y5	Z5	X6	Y6	Z6	X7	Y7	Z7	X8	Y8	Z8	X9	Y9	Z9	X10	Y10	Z10	X11	Y11	Z11	X12	Y12	Z12	X13	Y13	Z13	X14	Y14	Z14	X15	Y15	Z15	X16	Y16	Z16	X17	Y17	Z17	X18	Y18	Z18	X19	Y19	Z19	X20	Y20	Z20	X21	Y21	Z21	X22	Y22	Z22
355	11.833333333333334	-1.6837275338145445	0.8173619915637306	0.2573389228295057	-1.6885289070919243	0.7959921325153966	0.3379914536060564	-1.703533356013169	0.4686088841535523	0.3041817723489448	-1.7237211981961993	0.11875913276688833	0.3127627129659716	-1.5678103509437975	0.031987881929323385	0.3322515287453758	-1.5943529955535938	0.033441772828221424	0.39191280086085506	-1.7594943935193221	0.06117843806844789	0.31316489624664806	-1.6706335456208474	0.7919446630637696	0.18577934877931251	-1.681736503349074	0.450669198827505	0.19711276084813542	-1.7138770685045825	0.100253491346428	0.1630118889388833	-1.541542904043852	0.015578333429654288	0.14375174723934142	-1.556959178030103	0.026292604371164516	0.10142954331974309	-1.7712099260288003	0.03405420806469025	0.15599736428932337	-1.6772308388586508	1.45310235655362	0.22109394479161573	-1.6153200963829608	1.7180382233804907	0.2700622390666334	-1.5411392620466182	1.597770585447519	0.27618602752858207	-1.7410037348548468	1.354281288931297	0.3649643461976712	-1.7213906549203053	1.0540730366547548	0.3993252518984746	-1.6276188186824916	0.856881080266321	0.46829600319951786	-1.7012961124583363	1.3521348412362189	0.04437338337177872	-1.6987818358199287	1.0405878421641985	0.1099610675210816	-1.6120861561929551	0.8589413737762549	0.06193517337960149
356	11.866666666666667	-1.6843744367775844	0.8171825442150294	0.25737416633802634	-1.6889013159763173	0.796307017541047	0.338003384109408	-1.7035675109925237	0.4689402578957048	0.30434090983665707	-1.7238479859494409	0.11878792612714945	0.3128384902041272	-1.5677454327388434	0.03223461155176729	0.33261021019850767	-1.5945140570191154	0.03371611984236102	0.3919636642343851	-1.7593566664039542	0.06099654225992583	0.31360588617226004	-1.6714842246894321	0.7923692276150281	0.18571564580846758	-1.685191301849459	0.4518721924932503	0.2006472927020553	-1.7164133792415213	0.09974603549071333	0.1603058095110517	-1.5396895610570307	0.016494872870386867	0.1451749755624205	-1.5567345879112267	0.026629333753637924	0.10126424368423567	-1.77186533897571	0.03472311302672569	0.15477650027060585	-1.67742622837647	1.4529049973129622	0.22143434960048883	-1.6139426894382685	1.718478045223724	0.2705487715974231	-1.5411731151471577	1.5973968843698518	0.2768950826056623	-1.7408507690991146	1.354433855723866	0.3651980059262807	-1.7216752650406195	1.0539381561182894	0.3996738865827371	-1.627590488922168	0.8567862548806825	0.4685153036674921	-1.7016042463504233	1.3520864740306666	0.0446827772143896	-1.699053117907781	1.040726598537721	0.10997922437980766	-1.612016519241032	0.8590902116443421	0.061884096721075574
357	11.9	-1.6847319636437996	0.8171090681037225	0.2573291291828861	-1.689100907206722	0.7964999140334734	0.3378479138211887	-1.703712396524414	0.4693005351607885	0.30422374765689997	-1.7239137981573622	0.11897731486158765	0.3128380867225848	-1.5676813252735173	0.03233782659368877	0.33276502622888443	-1.5947246056393611	0.034128608910230174	0.39199276234628433	-1.7593469102032995	0.06096095451104257	0.3138938429220355	-1.6720986764790975	0.7926007397697588	0.18575807856968188	-1.6862188724408862	0.4521566087692921	0.2013900097224304	-1.7180767989784709	0.09949331533297634	0.15849367243803902	-1.538079290025505	0.01694574119551759	0.1467399103198161	-1.5564420454457133	0.02681064351873358	0.10115079209636163	-1.772157889440827	0.035302345751516286	0.15438600198665517	-1.6775907806494679	1.4527594189045858	0.2219301881843557	-1.6128921282931559	1.718795345211856	0.27034509239165044	-1.5412659066766607	1.5967056690562542	0.27728323183728176	-1.7407321517355698	1.354663498250601	0.3653715679259277	-1.7218442130721328	1.0538674357108864	0.39967616383678123	-1.6274920359496876	0.8565911944296648	0.4685817267451197	-1.7019270085955047	1.351556369119424	0.047732342990042295	-1.6992619840215657	1.0410345553186455	0.11004348728590858	-1.611946631509338	0.859327966461309	0.06201488611770551
358	11.933333333333334	-1.6846829146539792	0.8171535222284408	0.25725698371472827	-1.6890852123399214	0.7963944486689365	0.3376972551298422	-1.7040275156497955	0.4695080813260795	0.3039366755280649	-1.7239679744163374	0.11924577377015896	0.31275545245212627	-1.5676426997765875	0.03229714967963903	0.33273728023815885	-1.594897198718005	0.034574659752791045	0.3919986295896594	-1.7595114930004103	0.061133009407462253	0.31388586650984096	-1.6724088053958197	0.7923798165161923	0.18608601883885445	-1.6853697280067819	0.4515387245311965	0.20014461340626424	-1.7179721020833443	0.09963319608528717	0.15870514495729449	-1.5370765958895494	0.016599581238240166	0.14845678541345772	-1.5561241323221962	0.026752518047952485	0.1011749135174175	-1.771973258062727	0.03570712057880243	0.15502367781029933	-1.6776169952789786	1.4527763163402152	0.22248004375871025	-1.6125527099503731	1.7187036536918996	0.26953928570561253	-1.5413209939860426	1.5959006882909088	0.2770297903994551	-1.7406468347446382	1.354927983629236	0.36546465255001614	-1.721805078287642	1.0538880844567422	0.39938048529993103	-1.6274285608346857	0.8563790356047392	0.4685066276335365	-1.7022436146993383	1.350281086029749	0.05471751911292201	-1.699407559342656	1.0414339870796083	0.11022815432338927	-1.6119250573920472	0.8595866228293242	0.062244250329598454
359	11.966666666666669	-1.6842377148475745	0.8172972755456305	0.257200296581952	-1.6888898015185263	0.7956791589946058	0.3376362133451148	-1.704594509715576	0.46931897617247703	0.3035388591514825	-1.7240912619075635	0.11947552426312179	0.3125544543132755	-1.5676395138019092	0.032144636014390625	0.3326492826884812	-1.5949948056892367	0.03500107939365705	0.3920778151151014	-1.7599084252016792	0.061488528879560994	0.3134831645743684	-1.672436496327195	0.7914062663655975	0.1867175973294246	-1.6843545209892803	0.4504530563017854	0.19898766911632246	-1.7156903147950375	0.10021197435267992	0.16151323780847068	-1.537282451613563	0.015133597114666499	0.14992646562314613	-1.5558763456478315	0.026426147564806622	0.10140038571820754	-1.7711877029940604	0.03580917397177869	0.15679105460512036	-1.6774041023114232	1.4530418712041155	0.2229811064108659	-1.61332451900503	1.717926236827175	0.26824521792702555	-1.5412337952351902	1.5952762842538128	0.276078002810907	-1.7405699142507516	1.3551315989754265	0.3655151405493438	-1.7215042317437177	1.053994540665066	0.3990099097525921	-1.627478255918744	0.8562444852943966	0.46833289705736103	-1.7025935161611105	1.3480447765584314	0.06642168469033637	-1.6994964172877487	1.0417739444029286	0.11058258634422614	-1.6119962311621872	0.8598070574335095	0.062486726425677895
360	12.0	-1.6834980472339556	0.8175356495389817	0.2571757612632569	-1.688645742350103	0.7941936776649892	0.33759059495985644	-1.705429758938226	0.46860840722821445	0.30298775671334427	-1.7243084833780693	0.11960147122308887	0.31220873675287536	-1.567667303219888	0.031899790016217754	0.3325985913618574	-1.5950414619322308	0.0354191421150133	0.3923392361311495	-1.7605082208393867	0.061913175937129424	0.3127215647628209	-1.6722799816740683	0.7896332290814222	0.18743683301645628	-1.6848865104045099	0.44949941662871645	0.19983654541656132	-1.7119139082937334	0.10106497827119855	0.16616405181750565	-1.5390125162358057	0.012591523632899332	0.1505977160024722	-1.555803608194275	0.025864979427361035	0.10180806618805949	-1.7697230162868534	0.035532881584316174	0.15954956279800772	-1.6769414293915366	1.4535448909798225	0.22338900068549367	-1.615340597458639	1.716405809201442	0.2664878322661396	-1.54096900348204	1.595076674801817	0.27472207574596846	-1.7404545145935626	1.355173506490517	0.3656094527639276	-1.7209946948429324	1.0541849625751651	0.3988060200096268	-1.6276427428449503	0.8562568016811747	0.4681238844066248	-1.7030220932632338	1.3450018013301608	0.08189709430149945	-1.6995514761733408	1.0419569362748962	0.11108001544791206	-1.61216502076867	0.859961662321066	0.06268923031723748
361	12.033333333333331	-1.6827130923987048	0.8178487661009026	0.25719259248649223	-1.688507855832816	0.7923038597313995	0.3375246594618347	-1.7063649107546461	0.46757175648364885	0.30230650617626154	-1.7245616553002014	0.11964990374040328	0.3117606261540445	-1.5677360421099822	0.031576569614127484	0.3326140830290264	-1.595106476947401	0.03581251303209445	0.39276787158216797	-1.761144982814607	0.06227300656057548	0.3117725392283563	-1.6720820588852947	0.7875316130652872	0.1879826839190636	-1.6872432942260847	0.44904339515343955	0.20285824201814862	-1.70798238951278	0.1019274409578494	0.17103893725380437	-1.5418019468799957	0.009596370831248039	0.15027358169462343	-1.5559461254635587	0.025175080356359198	0.10227247392594299	-1.7677024862295445	0.034966177886909006	0.16276402676735893	-1.676371502251766	1.4541106683186542	0.22369650444651307	-1.6180843590855611	1.7145402796189522	0.26439645363658526	-1.5405796261189797	1.595295334882012	0.2732026465530214	-1.7402446158322558	1.3550301999444851	0.36584208220336406	-1.7204542227082922	1.0544632017736015	0.39887961161052626	-1.6278431513626848	0.8564127080818422	0.4679399531387715	-1.703502920466498	1.3418828126651454	0.0975375555839849	-1.6996303102322945	1.0419925978577638	0.11160479608835769	-1.6123554282222712	0.8600385276642039	0.06282800875097568
362	12.066666666666666	-1.6822685099146615	0.818132269938543	0.2572597877586895	-1.6885700968975097	0.7907299336789656	0.3375381110243738	-1.7070954842488881	0.46663494522512383	0.3017081280774608	-1.7247677413537772	0.11968169725929881	0.3112872951962857	-1.5678638370593199	0.03123816322538919	0.33272528285167025	-1.595251383164782	0.036106276508908845	0.39324609140841543	-1.761631369034621	0.0624842111486911	0.31084623822449076	-1.671987037098091	0.7858509772373348	0.18823845107189954	-1.690219670902399	0.4490655502761255	0.2065620280598677	-1.7049185483113825	0.10265901975094922	0.17481214141630483	-1.544704308393806	0.007008482891691341	0.14949254476119458	-1.5562803323540493	0.024505193872754304	0.10262840181472233	-1.7655603566095266	0.034369048957116434	0.16554268999338237	-1.6759318859690329	1.4544743482064826	0.2238814587086246	-1.6205302727242217	1.7130495496401699	0.2624479801154139	-1.5401952819623326	1.5957103881925272	0.27170343153252713	-1.7399393580130815	1.354773301942144	0.36624081502272143	-1.7201102629712903	1.054806526214858	0.39916277993088733	-1.6279662380919362	0.8566321715186536	0.46781923168063194	-1.703933702520499	1.3396348996060377	0.10876517829873275	-1.6997688876104164	1.0419283327710642	0.1120074299567197	-1.6124690511980342	0.8600201528383113	0.06291457407141146
363	12.1	-1.682422589712704	0.8182467542059494	0.2573782365082848	-1.6888293806894017	0.7899345799434613	0.3377296895759026	-1.7073996676693715	0.4661034166493828	0.30145339812096034	-1.7248909861541692	0.11971046623481019	0.3108245310304902	-1.5680400363737073	0.03097061042501106	0.33297192164051337	-1.5954749635137253	0.036229051021120603	0.3936784915687731	-1.7618872814583955	0.06252910603275014	0.31007622005377933	-1.6720577847052944	0.7850449533309002	0.18825940279354916	-1.6924634120795488	0.4493147899470532	0.20937078437241036	-1.703016674851713	0.10328485973207353	0.17701707619367574	-1.5470171288897596	0.005352401598577362	0.14929353818057323	-1.5567570873085366	0.02397078427165708	0.1027631920805896	-1.7637112175615057	0.03404364776244662	0.16720863865666263	-1.6757813799501697	1.4544820380633197	0.22392547300318252	-1.6218690764037915	1.7124583794572497	0.261339766196888	-1.5399707192655592	1.5961418903618732	0.27071760747639034	-1.739636433540662	1.354505222759431	0.3667176433057663	-1.7200898444467168	1.05515840803148	0.39948693751259157	-1.627931318727784	0.8568238682806464	0.46777508986362987	-1.7042197149109413	1.3386417965285538	0.11373563815056309	-1.6999016784978618	1.0417819461915465	0.11220230725317248	-1.6124911512981277	0.8598783912698673	0.06299562301917215
